<svg width="163" height="30" viewBox="0 0 163 30" fill="none" xmlns="http://www.w3.org/2000/svg">
<path d="M21.8555 28.8281H18.0859L3.76953 6.91406V28.8281H0V0.390625H3.76953L18.125 22.4023V0.390625H21.8555V28.8281Z" fill="#F4F3EB"/>
<path d="M50.3906 15.5273C50.3906 18.3138 49.9219 20.7487 48.9844 22.832C48.0469 24.9023 46.7188 26.4844 45 27.5781C43.2812 28.6719 41.276 29.2188 38.9844 29.2188C36.7448 29.2188 34.7591 28.6719 33.0273 27.5781C31.2956 26.4714 29.9479 24.9023 28.9844 22.8711C28.0339 20.8268 27.5456 18.4635 27.5195 15.7812V13.7305C27.5195 10.9961 27.9948 8.58073 28.9453 6.48438C29.8958 4.38802 31.237 2.78646 32.9688 1.67969C34.7135 0.559896 36.7057 0 38.9453 0C41.224 0 43.2292 0.553385 44.9609 1.66016C46.7057 2.75391 48.0469 4.34896 48.9844 6.44531C49.9219 8.52865 50.3906 10.957 50.3906 13.7305V15.5273ZM46.6602 13.6914C46.6602 10.319 45.9831 7.73438 44.6289 5.9375C43.2747 4.1276 41.3802 3.22266 38.9453 3.22266C36.5755 3.22266 34.707 4.1276 33.3398 5.9375C31.9857 7.73438 31.2891 10.2344 31.25 13.4375V15.5273C31.25 18.7956 31.9336 21.3672 33.3008 23.2422C34.681 25.1042 36.5755 26.0352 38.9844 26.0352C41.4062 26.0352 43.2812 25.1562 44.6094 23.3984C45.9375 21.6276 46.6211 19.0951 46.6602 15.8008V13.6914Z" fill="#F4F3EB"/>
<path d="M69.707 25.7617H83.1836V28.8281H65.9375V0.390625H69.707V25.7617Z" fill="#F4F3EB"/>
<path d="M108.047 15.5273C108.047 18.3138 107.578 20.7487 106.641 22.832C105.703 24.9023 104.375 26.4844 102.656 27.5781C100.938 28.6719 98.9323 29.2188 96.6406 29.2188C94.401 29.2188 92.4154 28.6719 90.6836 27.5781C88.9518 26.4714 87.6042 24.9023 86.6406 22.8711C85.6901 20.8268 85.2018 18.4635 85.1758 15.7812V13.7305C85.1758 10.9961 85.651 8.58073 86.6016 6.48438C87.5521 4.38802 88.8932 2.78646 90.625 1.67969C92.3698 0.559896 94.362 0 96.6016 0C98.8802 0 100.885 0.553385 102.617 1.66016C104.362 2.75391 105.703 4.34896 106.641 6.44531C107.578 8.52865 108.047 10.957 108.047 13.7305V15.5273ZM104.316 13.6914C104.316 10.319 103.639 7.73438 102.285 5.9375C100.931 4.1276 99.0365 3.22266 96.6016 3.22266C94.2318 3.22266 92.3633 4.1276 90.9961 5.9375C89.6419 7.73438 88.9453 10.2344 88.9062 13.4375V15.5273C88.9062 18.7956 89.5898 21.3672 90.957 23.2422C92.3372 25.1042 94.2318 26.0352 96.6406 26.0352C99.0625 26.0352 100.938 25.1562 102.266 23.3984C103.594 21.6276 104.277 19.0951 104.316 15.8008V13.6914Z" fill="#F4F3EB"/>
<path d="M134.668 25.0977C133.704 26.4779 132.357 27.513 130.625 28.2031C128.906 28.8802 126.901 29.2188 124.609 29.2188C122.292 29.2188 120.234 28.6784 118.438 27.5977C116.641 26.5039 115.247 24.9544 114.258 22.9492C113.281 20.944 112.78 18.6198 112.754 15.9766V13.4961C112.754 9.21224 113.75 5.89193 115.742 3.53516C117.747 1.17839 120.56 0 124.18 0C127.148 0 129.538 0.761719 131.348 2.28516C133.158 3.79557 134.264 5.94401 134.668 8.73047H130.918C130.215 4.96745 127.975 3.08594 124.199 3.08594C121.686 3.08594 119.779 3.97135 118.477 5.74219C117.188 7.5 116.536 10.0521 116.523 13.3984V15.7227C116.523 18.9128 117.253 21.4518 118.711 23.3398C120.169 25.2148 122.142 26.1523 124.629 26.1523C126.035 26.1523 127.266 25.9961 128.32 25.6836C129.375 25.3711 130.247 24.8438 130.938 24.1016V17.7148H124.355V14.668H134.668V25.0977Z" fill="#F4F3EB"/>
<path d="M162.812 15.5273C162.812 18.3138 162.344 20.7487 161.406 22.832C160.469 24.9023 159.141 26.4844 157.422 27.5781C155.703 28.6719 153.698 29.2188 151.406 29.2188C149.167 29.2188 147.181 28.6719 145.449 27.5781C143.717 26.4714 142.37 24.9023 141.406 22.8711C140.456 20.8268 139.967 18.4635 139.941 15.7812V13.7305C139.941 10.9961 140.417 8.58073 141.367 6.48438C142.318 4.38802 143.659 2.78646 145.391 1.67969C147.135 0.559896 149.128 0 151.367 0C153.646 0 155.651 0.553385 157.383 1.66016C159.128 2.75391 160.469 4.34896 161.406 6.44531C162.344 8.52865 162.812 10.957 162.812 13.7305V15.5273ZM159.082 13.6914C159.082 10.319 158.405 7.73438 157.051 5.9375C155.697 4.1276 153.802 3.22266 151.367 3.22266C148.997 3.22266 147.129 4.1276 145.762 5.9375C144.408 7.73438 143.711 10.2344 143.672 13.4375V15.5273C143.672 18.7956 144.355 21.3672 145.723 23.2422C147.103 25.1042 148.997 26.0352 151.406 26.0352C153.828 26.0352 155.703 25.1562 157.031 23.3984C158.359 21.6276 159.043 19.0951 159.082 15.8008V13.6914Z" fill="#F4F3EB"/>
</svg>
