<svg width="90" height="90" viewBox="0 0 90 90" fill="none" xmlns="http://www.w3.org/2000/svg">
<path d="M45 0C20.1496 0 0 20.1496 0 45C0 69.8504 20.1496 90 45 90C69.8504 90 90 69.8504 90 45C90 20.1496 69.8504 0 45 0ZM29.8828 51.8504C29.8828 54.6429 27.6228 56.9129 24.8304 56.9129C23.4944 56.9129 22.2087 56.3806 21.2545 55.4263C20.3103 54.4721 19.7779 53.1864 19.7779 51.8504C19.7779 49.058 22.0379 46.7879 24.8304 46.7879H29.8828V51.8504ZM43.3426 65.3504C43.3426 68.1429 41.0826 70.4129 38.2902 70.4129C35.4978 70.4129 33.2377 68.1429 33.2377 65.3504V51.8504C33.2377 49.058 35.4978 46.7879 38.2902 46.7879C39.6261 46.7879 40.9118 47.3203 41.8661 48.2746C42.8203 49.2288 43.3426 50.5145 43.3426 51.8504V65.3504ZM38.3002 43.4129H24.8404C22.048 43.4129 19.7879 41.1429 19.7879 38.3504C19.7879 35.558 22.048 33.2879 24.8404 33.2879H38.3002C41.0926 33.2879 43.3527 35.558 43.3527 38.3504C43.3426 41.1529 41.0826 43.4129 38.3002 43.4129ZM38.3002 29.9129C36.9643 29.9129 35.6786 29.3806 34.7243 28.4263C33.7701 27.4721 33.2478 26.1964 33.2478 24.8504C33.2478 22.058 35.5078 19.7879 38.3002 19.7879C41.0926 19.7879 43.3527 22.058 43.3527 24.8504V29.9129H38.3002ZM46.7076 24.8504C46.7076 22.058 48.9676 19.7879 51.76 19.7879C54.5525 19.7879 56.8125 22.058 56.8125 24.8504V38.3504C56.8125 41.1429 54.5525 43.4129 51.76 43.4129C48.9676 43.4129 46.7076 41.1429 46.7076 38.3504V24.8504ZM51.76 70.4129C48.9676 70.4129 46.7076 68.1429 46.7076 65.3504V60.2879H51.76C54.5525 60.2879 56.8125 62.558 56.8125 65.3504C56.8125 68.1429 54.5525 70.4129 51.76 70.4129ZM65.2199 56.9129H51.76C50.4241 56.9129 49.1384 56.3806 48.1842 55.4263C47.2299 54.4721 46.7076 53.1964 46.7076 51.8504C46.7076 49.058 48.9676 46.7879 51.76 46.7879H65.2199C68.0123 46.7879 70.2723 49.058 70.2723 51.8504C70.2723 54.6429 68.0123 56.9129 65.2199 56.9129ZM65.2199 43.4129H60.1674V38.3504C60.1674 35.558 62.4275 33.2879 65.2199 33.2879C68.0123 33.2879 70.2723 35.558 70.2723 38.3504C70.2723 41.1429 68.0123 43.4129 65.2199 43.4129Z" fill="#7DC9E7"/>
</svg>
